Coordinates
version=1
nRows=12
nColumns=46
inDegrees=yes

Units are S.I. units (second, meters, Newtons, ...)
Angles are in degrees.

endheader
time	pelvis_tilt	pelvis_list	pelvis_rotation	pelvis_tx	pelvis_ty	pelvis_tz	bb_angle	bb_tx	bb_ty	bb_tz	hip_flexion_r	hip_adduction_r	hip_rotation_r	knee_angle_r	knee_angle_r_beta	ankle_angle_r	subtalar_angle_r	mtp_angle_r	crank_angle_r	hip_flexion_l	hip_adduction_l	hip_rotation_l	knee_angle_l	knee_angle_l_beta	ankle_angle_l	subtalar_angle_l	mtp_angle_l	crank_angle_l	lumbar_extension	lumbar_bending	lumbar_rotation	arm_flex_r	arm_add_r	arm_rot_r	elbow_flex_r	pro_sup_r	wrist_flex_r	wrist_dev_r	arm_flex_l	arm_add_l	arm_rot_l	elbow_flex_l	pro_sup_l	wrist_flex_l	wrist_dev_l
      7.50500000	    -30.14794529	     -8.00574700	     -5.88641909	      0.41077543	      1.05656368	     -0.23240214	      0.00000000	      0.50000000	      0.00000000	      0.25000000	     65.30398118	      8.78975217	      3.07873405	    108.78307599	      1.89862285	     16.15530627	     -3.47562232	      0.00000000	      0.00000000	     44.62489316	    -15.49743848	     -0.59219426	     34.15789073	      0.59616766	     -5.08314869	     -4.76874119	      0.00000000	      0.00000000	    -54.02117592	      4.07113738	      4.30113744	     61.52351229	    -33.41923421	     59.78851169	     79.31870796	     54.17355807	      0.00000000	      0.00000000	     29.52626569	    -37.90072194	     27.56980998	     91.43679037	     49.37800188	      0.00000000	      0.00000000
      7.51000000	    -30.34801258	     -8.43247990	     -6.56502919	      0.41062272	      1.05591105	     -0.23246110	      0.00000000	      0.50000000	      0.00000000	      0.25000000	     66.82611575	      9.43860041	      2.84419330	    110.01299022	      1.92008890	     16.99733822	     -3.34762102	      0.00000000	      0.00000000	     43.50460100	    -16.25879182	     -1.08414358	     32.82179771	      0.57284844	     -6.30524598	     -4.44288320	      0.00000000	      0.00000000	    -53.85186174	      4.33581156	      5.08146496	     61.79187338	    -33.42324113	     59.81834189	     79.34585934	     54.17086038	      0.00000000	      0.00000000	     29.15763136	    -37.64731525	     27.53732532	     91.39457422	     49.37284695	      0.00000000	      0.00000000
      7.51500000	    -30.29741503	     -8.58326913	     -7.26746034	      0.41063027	      1.05579468	     -0.23268319	      0.00000000	      0.50000000	      0.00000000	      0.25000000	     68.06732885	      9.93206977	      2.94812092	    111.17239256	      1.94032429	     18.05107262	     -2.53608397	      0.00000000	      0.00000000	     42.01182597	    -16.76377086	     -1.90621552	     31.44027559	      0.54873633	     -7.78171551	     -4.55846669	      0.00000000	      0.00000000	    -53.95019733	      4.40686278	      5.80565861	     62.71340617	    -34.05497140	     61.09292753	     79.81013346	     54.38703306	      0.00000000	      0.00000000	     28.79267390	    -36.56882888	     26.60537802	     90.77284612	     49.20990544	      0.00000000	      0.00000000
      7.52000000	    -30.45200809	     -8.90527850	     -8.02192118	      0.41055694	      1.05540322	     -0.23271589	      0.00000000	      0.50000000	      0.00000000	      0.25000000	     69.50252310	     10.54026911	      2.74697661	    112.10534314	      1.95660735	     18.87477051	     -2.46497339	      0.00000000	      0.00000000	     40.88853309	    -17.51890077	     -2.75810299	     30.38800768	      0.53037079	     -9.00196965	     -4.23014705	      0.00000000	      0.00000000	    -53.87292456	      4.58117349	      6.59228864	     63.08230570	    -34.19139933	     61.38826961	     79.90144833	     54.42659962	      0.00000000	      0.00000000	     28.38367733	    -36.22906818	     26.49749587	     90.66771169	     49.19234824	      0.00000000	      0.00000000
      7.52500000	    -30.42680641	     -9.03677710	     -8.75226124	      0.41069686	      1.05549351	     -0.23281723	      0.00000000	      0.50000000	      0.00000000	      0.25000000	     70.67935623	     11.07876723	      2.82151124	    112.88830907	      1.97027268	     19.81331087	     -1.82413350	      0.00000000	      0.00000000	     39.50420612	    -18.06237090	     -3.82898047	     29.32979038	      0.51190141	    -10.10263506	     -3.93519862	      0.00000000	      0.00000000	    -54.00181592	      4.55310371	      7.25507731	     63.94215710	    -34.71258086	     62.44566267	     80.21002047	     54.58567173	      0.00000000	      0.00000000	     28.12502975	    -35.35717859	     25.78420372	     90.19981967	     49.06649666	      0.00000000	      0.00000000
      7.53000000	    -30.56513641	     -9.19647845	     -9.68178858	      0.41078228	      1.05533519	     -0.23225099	      0.00000000	      0.50000000	      0.00000000	      0.25000000	     72.01792893	     11.88383462	      2.83248484	    113.49511862	      1.98086350	     20.65730013	     -1.59203635	      0.00000000	      0.00000000	     38.36363090	    -18.83952141	     -5.08597258	     28.59165229	      0.49901847	    -11.02392413	     -3.33530084	      0.00000000	      0.00000000	    -53.93672318	      4.43369910	      8.03083092	     64.56824169	    -34.89361938	     63.27301150	     80.34592849	     54.69061033	      0.00000000	      0.00000000	     27.70737403	    -34.78739367	     25.32411659	     89.80439586	     48.97713481	      0.00000000	      0.00000000
      7.53500000	    -30.57349354	     -9.33390902	    -10.37228187	      0.41074627	      1.05548658	     -0.23226538	      0.00000000	      0.50000000	      0.00000000	      0.25000000	     73.19871236	     12.39472709	      2.73124535	    113.97226972	      1.98919136	     21.39107447	     -1.37415918	      0.00000000	      0.00000000	     37.22553868	    -19.39295683	     -6.15570268	     27.99868557	      0.48866925	    -11.95580133	     -2.77508580	      0.00000000	      0.00000000	    -54.06070251	      4.48546737	      8.60799662	     65.73981141	    -35.19939094	     64.63560074	     80.44472346	     54.85134122	      0.00000000	      0.00000000	     27.33912458	    -34.00149148	     24.57207558	     89.28645038	     48.85839631	      0.00000000	      0.00000000
      7.54000000	    -30.76968725	     -9.41969648	    -11.01371768	      0.41050004	      1.05549766	     -0.23208530	      0.00000000	      0.50000000	      0.00000000	      0.25000000	     74.54853603	     12.87082137	      2.59221105	    114.25202395	      1.99407399	     22.00684600	     -1.29743341	      0.00000000	      0.00000000	     36.42251292	    -19.86653425	     -7.03629280	     27.62115509	      0.48208010	    -12.88615298	     -2.47005953	      0.00000000	      0.00000000	    -53.97726043	      4.49335308	      9.08683558	     66.11119586	    -35.12169395	     64.78828833	     80.49038769	     54.87277562	      0.00000000	      0.00000000	     27.06833501	    -33.82785708	     24.54139756	     89.18381802	     48.84830652	      0.00000000	      0.00000000
      7.54500000	    -30.95120694	     -9.35708878	    -11.87366677	      0.41055210	      1.05562645	     -0.23143156	      0.00000000	      0.50000000	      0.00000000	      0.25000000	     75.81876665	     13.53981423	      2.66697463	    114.35735196	      1.99591232	     22.63332868	     -1.12406733	      0.00000000	      0.00000000	     35.54486354	    -20.40913822	     -8.48094102	     27.41634905	      0.47850556	    -13.56403465	     -2.18227890	      0.00000000	      0.00000000	    -53.89277628	      4.17869811	      9.57021659	     66.46622779	    -35.05678450	     65.06507676	     80.55862886	     54.91150319	      0.00000000	      0.00000000	     26.79351914	    -33.52674553	     24.39290601	     88.97643149	     48.80923747	      0.00000000	      0.00000000
      7.55000000	    -30.81266614	     -9.30272533	    -12.57696748	      0.41055997	      1.05616615	     -0.23129001	      0.00000000	      0.50000000	      0.00000000	      0.25000000	     76.71584953	     14.06828865	      2.76819786	    114.37218772	      1.99617125	     23.08220537	     -0.80558101	      0.00000000	      0.00000000	     34.43134818	    -20.78680038	     -9.78124730	     27.40413273	      0.47829234	    -14.07445708	     -1.74611835	      0.00000000	      0.00000000	    -54.09057765	      3.92657256	      9.97413137	     66.99358636	    -35.09513389	     65.54858598	     80.64106795	     54.97549236	      0.00000000	      0.00000000	     26.58423191	    -33.01799639	     23.97914610	     88.62623975	     48.72293018	      0.00000000	      0.00000000
      7.55500000	    -30.63983554	     -9.21374208	    -13.19605173	      0.41079267	      1.05695402	     -0.23152150	      0.00000000	      0.50000000	      0.00000000	      0.25000000	     77.46019304	     14.43283062	      2.85331101	    114.15898561	      1.99245017	     23.55377379	     -0.51839053	      0.00000000	      0.00000000	     33.34890962	    -21.05094315	    -10.99601539	     27.55867590	      0.48098963	    -14.15077320	     -1.06307451	      0.00000000	      0.00000000	    -54.48965042	      3.85314429	     10.20402288	     68.69496782	    -35.26626409	     67.73108494	     80.68308787	     55.22130941	      0.00000000	      0.00000000	     26.10363734	    -31.87665401	     22.26459558	     87.70300153	     48.46094057	      0.00000000	      0.00000000
      7.56000000	    -30.70447993	     -9.17002073	    -13.68502461	      0.41070057	      1.05741446	     -0.23171935	      0.00000000	      0.50000000	      0.00000000	      0.25000000	     78.41377966	     14.71822054	      2.73976044	    113.79339709	      1.98606945	     23.91012986	     -0.48819293	      0.00000000	      0.00000000	     32.75312145	    -21.26945583	    -11.73459883	     28.00098536	      0.48870939	    -14.43136590	     -1.21273011	      0.00000000	      0.00000000	    -54.57163536	      3.80439519	     10.43431108	     69.12958363	    -35.13716072	     67.91882012	     80.70043767	     55.24177172	      0.00000000	      0.00000000	     25.97266467	    -31.65679608	     22.16445631	     87.80751087	     48.47931984	      0.00000000	      0.00000000
